<svg xmlns="http://www.w3.org/2000/svg" viewBox="0 0 128 128" width="128" height="128">
  <defs>
    <linearGradient id="sage-grad" x1="0%" y1="0%" x2="0%" y2="100%">
      <stop offset="0%" stop-color="#6fa093"/>
      <stop offset="100%" stop-color="#5e8b7e"/>
    </linearGradient>
  </defs>
  <rect width="128" height="128" rx="20" ry="20" fill="#ffffff"/>
  <g transform="translate(21, 9) scale(0.86)">
    <path d="M 0.00,10.00 L 0.06,8.88 L 0.25,7.77 L 0.56,6.70 L 0.99,5.66 L 1.53,4.68 L 2.18,3.77 L 2.93,2.93 L 3.77,2.18 L 4.68,1.53 L 5.66,0.99 L 6.70,0.56 L 7.77,0.25 L 8.88,0.06 L 10.00,0.00 L 90.00,0.00 L 91.12,0.06 L 92.23,0.25 L 93.30,0.56 L 94.34,0.99 L 95.32,1.53 L 96.23,2.18 L 97.07,2.93 L 97.82,3.77 L 98.47,4.68 L 99.01,5.66 L 99.44,6.70 L 99.75,7.77 L 99.94,8.88 L 100.00,10.00 L 100.14,12.41 L 100.23,14.83 L 100.27,17.24 L 100.27,19.65 L 100.22,22.05 L 100.12,24.46 L 99.98,26.86 L 99.80,29.26 L 99.56,31.65 L 99.28,34.05 L 98.95,36.44 L 98.58,38.83 L 98.16,41.22 L 97.69,43.60 L 97.18,45.99 L 96.62,48.37 L 96.02,50.75 L 95.36,53.13 L 94.66,55.50 L 93.92,57.87 L 93.13,60.24 L 92.29,62.61 L 91.41,64.98 L 90.48,67.34 L 89.50,69.70 L 88.48,72.06 L 87.41,74.42 L 86.29,76.77 L 85.13,79.12 L 83.92,81.47 L 82.66,83.82 L 81.36,86.17 L 80.02,88.51 L 78.62,90.85 L 77.18,93.19 L 75.69,95.52 L 74.16,97.86 L 72.58,100.19 L 70.95,102.52 L 69.28,104.85 L 67.56,107.17 L 65.80,109.50 L 63.98,111.82 L 62.12,114.14 L 60.22,116.45 L 58.27,118.77 L 56.27,121.08 L 54.23,123.39 L 52.14,125.69 L 50.00,128.00 L 47.86,125.69 L 45.77,123.39 L 43.73,121.08 L 41.73,118.77 L 39.78,116.45 L 37.88,114.14 L 36.02,111.82 L 34.20,109.50 L 32.44,107.17 L 30.72,104.85 L 29.05,102.52 L 27.42,100.19 L 25.84,97.86 L 24.31,95.52 L 22.82,93.19 L 21.38,90.85 L 19.98,88.51 L 18.64,86.17 L 17.34,83.82 L 16.08,81.47 L 14.87,79.12 L 13.71,76.77 L 12.59,74.42 L 11.52,72.06 L 10.50,69.70 L 9.52,67.34 L 8.59,64.98 L 7.71,62.61 L 6.87,60.24 L 6.08,57.87 L 5.34,55.50 L 4.64,53.13 L 3.98,50.75 L 3.38,48.37 L 2.82,45.99 L 2.31,43.60 L 1.84,41.22 L 1.42,38.83 L 1.05,36.44 L 0.72,34.05 L 0.44,31.65 L 0.20,29.26 L 0.02,26.86 L -0.12,24.46 L -0.22,22.05 L -0.27,19.65 L -0.27,17.24 L -0.23,14.83 L -0.14,12.41 L 0.00,10.00 Z" fill="url(#sage-grad)"/>
    <path d="M 6.00,14.80 L 6.06,13.81 L 6.22,12.84 L 6.49,11.89 L 6.87,10.98 L 7.35,10.12 L 7.92,9.31 L 8.58,8.58 L 9.31,7.92 L 10.12,7.35 L 10.98,6.87 L 11.89,6.49 L 12.84,6.22 L 13.81,6.06 L 14.80,6.00 L 85.20,6.00 L 86.19,6.06 L 87.16,6.22 L 88.11,6.49 L 89.02,6.87 L 89.88,7.35 L 90.69,7.92 L 91.42,8.58 L 92.08,9.31 L 92.65,10.12 L 93.13,10.98 L 93.51,11.89 L 93.78,12.84 L 93.94,13.81 L 94.00,14.80 L 94.12,17.00 L 94.20,19.20 L 94.24,21.39 L 94.24,23.58 L 94.19,25.77 L 94.11,27.96 L 93.99,30.15 L 93.82,32.33 L 93.61,34.51 L 93.37,36.69 L 93.08,38.86 L 92.75,41.04 L 92.38,43.21 L 91.97,45.38 L 91.52,47.55 L 91.03,49.71 L 90.49,51.88 L 89.92,54.04 L 89.31,56.20 L 88.65,58.35 L 87.95,60.51 L 87.22,62.66 L 86.44,64.81 L 85.62,66.95 L 84.76,69.10 L 83.86,71.24 L 82.92,73.38 L 81.94,75.52 L 80.91,77.66 L 79.85,79.79 L 78.75,81.92 L 77.60,84.05 L 76.41,86.18 L 75.19,88.31 L 73.92,90.43 L 72.61,92.55 L 71.26,94.67 L 69.87,96.78 L 68.44,98.90 L 66.97,101.01 L 65.45,103.12 L 63.90,105.22 L 62.31,107.33 L 60.67,109.43 L 58.99,111.53 L 57.28,113.63 L 55.52,115.73 L 53.72,117.82 L 51.88,119.91 L 50.00,122.00 L 48.12,119.91 L 46.28,117.82 L 44.48,115.73 L 42.72,113.63 L 41.01,111.53 L 39.33,109.43 L 37.69,107.33 L 36.10,105.22 L 34.55,103.12 L 33.03,101.01 L 31.56,98.90 L 30.13,96.78 L 28.74,94.67 L 27.39,92.55 L 26.08,90.43 L 24.81,88.31 L 23.59,86.18 L 22.40,84.05 L 21.25,81.92 L 20.15,79.79 L 19.09,77.66 L 18.06,75.52 L 17.08,73.38 L 16.14,71.24 L 15.24,69.10 L 14.38,66.95 L 13.56,64.81 L 12.78,62.66 L 12.05,60.51 L 11.35,58.35 L 10.69,56.20 L 10.08,54.04 L 9.51,51.88 L 8.97,49.71 L 8.48,47.55 L 8.03,45.38 L 7.62,43.21 L 7.25,41.04 L 6.92,38.86 L 6.63,36.69 L 6.39,34.51 L 6.18,32.33 L 6.01,30.15 L 5.89,27.96 L 5.81,25.77 L 5.76,23.58 L 5.76,21.39 L 5.80,19.20 L 5.88,17.00 L 6.00,14.80 Z" fill="none" stroke="#4f7a6e" stroke-width="0.8" opacity="0.45"/>
    <path d="M 22.00,58.88 L 42.00,74.24 L 78.00,40.96" fill="none" stroke="#fafaf8" stroke-width="10.00" stroke-linecap="round" stroke-linejoin="round"/>
  </g>
</svg>
